<mxfile host="Electron" agent="Mozilla/5.0 (Windows NT 10.0; Win64; x64) AppleWebKit/537.36 (KHTML, like Gecko) draw.io/24.7.5 Chrome/126.0.6478.183 Electron/31.3.0 Safari/537.36" version="24.7.5">
  <diagram name="Page-1" id="b520641d-4fe3-3701-9064-5fc419738815">
    <mxGraphModel dx="2442" dy="3984" grid="1" gridSize="10" guides="1" tooltips="1" connect="1" arrows="1" fold="1" page="1" pageScale="1" pageWidth="1100" pageHeight="850" background="#18161D" math="0" shadow="0">
      <root>
        <mxCell id="0" />
        <mxCell id="1" parent="0" />
        <mxCell id="5jbSg2TQ_fppJZuNqXfu-10" value="Merge" style="swimlane;whiteSpace=wrap;html=1;rounded=0;shadow=0;glass=0;align=center;verticalAlign=middle;fontFamily=Helvetica;fontSize=12;fontStyle=0;fillColor=none;perimeterSpacing=1;" vertex="1" parent="1">
          <mxGeometry x="780" y="-830" width="820" height="650" as="geometry" />
        </mxCell>
        <mxCell id="5jbSg2TQ_fppJZuNqXfu-11" value="RenderPass" style="swimlane;whiteSpace=wrap;html=1;rounded=0;shadow=0;glass=0;strokeColor=default;align=center;verticalAlign=middle;fontFamily=Helvetica;fontSize=12;fontColor=default;fontStyle=0;fillColor=none;strokeWidth=2;" vertex="1" parent="5jbSg2TQ_fppJZuNqXfu-10">
          <mxGeometry x="290" y="60" width="490" height="510" as="geometry" />
        </mxCell>
        <mxCell id="5jbSg2TQ_fppJZuNqXfu-31" value="Attachments" style="swimlane;fontStyle=0;childLayout=stackLayout;horizontal=1;startSize=30;horizontalStack=0;resizeParent=1;resizeParentMax=0;resizeLast=0;collapsible=1;marginBottom=0;whiteSpace=wrap;html=1;rounded=0;shadow=0;glass=0;strokeColor=default;align=center;verticalAlign=middle;fontFamily=Helvetica;fontSize=12;fontColor=default;fillColor=none;" vertex="1" parent="5jbSg2TQ_fppJZuNqXfu-11">
          <mxGeometry x="30" y="50" width="140" height="120" as="geometry" />
        </mxCell>
        <mxCell id="5jbSg2TQ_fppJZuNqXfu-32" value="Source" style="text;strokeColor=#85B87B;fillColor=none;align=left;verticalAlign=middle;spacingLeft=4;spacingRight=4;overflow=hidden;points=[[0,0.5],[1,0.5]];portConstraint=eastwest;rotatable=0;whiteSpace=wrap;html=1;fontFamily=Helvetica;fontSize=12;fontStyle=0;" vertex="1" parent="5jbSg2TQ_fppJZuNqXfu-31">
          <mxGeometry y="30" width="140" height="30" as="geometry" />
        </mxCell>
        <mxCell id="5jbSg2TQ_fppJZuNqXfu-33" value="Blurred" style="text;strokeColor=#85b87b;fillColor=none;align=left;verticalAlign=middle;spacingLeft=4;spacingRight=4;overflow=hidden;points=[[0,0.5],[1,0.5]];portConstraint=eastwest;rotatable=0;whiteSpace=wrap;html=1;fontFamily=Helvetica;fontSize=12;fontColor=default;fontStyle=0;" vertex="1" parent="5jbSg2TQ_fppJZuNqXfu-31">
          <mxGeometry y="60" width="140" height="30" as="geometry" />
        </mxCell>
        <mxCell id="5jbSg2TQ_fppJZuNqXfu-34" value="Output" style="text;strokeColor=#85b87b;fillColor=none;align=left;verticalAlign=middle;spacingLeft=4;spacingRight=4;overflow=hidden;points=[[0,0.5],[1,0.5]];portConstraint=eastwest;rotatable=0;whiteSpace=wrap;html=1;fontFamily=Helvetica;fontSize=12;fontColor=default;fontStyle=0;" vertex="1" parent="5jbSg2TQ_fppJZuNqXfu-31">
          <mxGeometry y="90" width="140" height="30" as="geometry" />
        </mxCell>
        <mxCell id="5jbSg2TQ_fppJZuNqXfu-61" style="edgeStyle=orthogonalEdgeStyle;rounded=0;orthogonalLoop=1;jettySize=auto;html=1;exitX=0.5;exitY=1;exitDx=0;exitDy=0;entryX=0.5;entryY=0;entryDx=0;entryDy=0;fontFamily=Helvetica;fontSize=12;fontColor=default;fontStyle=0;endArrow=box;endFill=0;" edge="1" parent="5jbSg2TQ_fppJZuNqXfu-11" source="5jbSg2TQ_fppJZuNqXfu-39" target="5jbSg2TQ_fppJZuNqXfu-59">
          <mxGeometry relative="1" as="geometry" />
        </mxCell>
        <mxCell id="5jbSg2TQ_fppJZuNqXfu-39" value="Subpass[0]" style="swimlane;whiteSpace=wrap;html=1;rounded=0;shadow=0;glass=0;strokeColor=#999999;align=center;verticalAlign=middle;fontFamily=Helvetica;fontSize=12;fontColor=default;fontStyle=0;fillColor=none;startSize=30;strokeWidth=1;dashed=1;dashPattern=12 12;" vertex="1" parent="5jbSg2TQ_fppJZuNqXfu-11">
          <mxGeometry x="280" y="100" width="180" height="280" as="geometry">
            <mxRectangle x="280" y="100" width="100" height="30" as="alternateBounds" />
          </mxGeometry>
        </mxCell>
        <mxCell id="5jbSg2TQ_fppJZuNqXfu-41" value="Dependencies" style="swimlane;fontStyle=0;childLayout=stackLayout;horizontal=1;startSize=30;horizontalStack=0;resizeParent=1;resizeParentMax=0;resizeLast=0;collapsible=1;marginBottom=0;whiteSpace=wrap;html=1;rounded=0;shadow=0;glass=0;strokeColor=default;align=center;verticalAlign=middle;fontFamily=Helvetica;fontSize=12;fontColor=default;fillColor=none;" vertex="1" parent="5jbSg2TQ_fppJZuNqXfu-39">
          <mxGeometry x="20" y="50" width="140" height="60" as="geometry" />
        </mxCell>
        <mxCell id="5jbSg2TQ_fppJZuNqXfu-42" value="External" style="text;strokeColor=none;fillColor=none;align=left;verticalAlign=middle;spacingLeft=4;spacingRight=4;overflow=hidden;points=[[0,0.5],[1,0.5]];portConstraint=eastwest;rotatable=0;whiteSpace=wrap;html=1;fontFamily=Helvetica;fontSize=12;fontColor=default;fontStyle=0;" vertex="1" parent="5jbSg2TQ_fppJZuNqXfu-41">
          <mxGeometry y="30" width="140" height="30" as="geometry" />
        </mxCell>
        <mxCell id="5jbSg2TQ_fppJZuNqXfu-46" value="AttachmentUsed" style="swimlane;fontStyle=0;childLayout=stackLayout;horizontal=1;startSize=30;horizontalStack=0;resizeParent=1;resizeParentMax=0;resizeLast=0;collapsible=1;marginBottom=0;whiteSpace=wrap;html=1;rounded=0;shadow=0;glass=0;strokeColor=default;align=center;verticalAlign=middle;fontFamily=Helvetica;fontSize=12;fontColor=default;fillColor=none;" vertex="1" parent="5jbSg2TQ_fppJZuNqXfu-39">
          <mxGeometry x="20" y="140" width="140" height="120" as="geometry">
            <mxRectangle x="20" y="140" width="130" height="30" as="alternateBounds" />
          </mxGeometry>
        </mxCell>
        <mxCell id="5jbSg2TQ_fppJZuNqXfu-47" value="input[0]" style="text;strokeColor=none;fillColor=none;align=left;verticalAlign=middle;spacingLeft=4;spacingRight=4;overflow=hidden;points=[[0,0.5],[1,0.5]];portConstraint=eastwest;rotatable=0;whiteSpace=wrap;html=1;fontFamily=Helvetica;fontSize=12;fontColor=default;fontStyle=0;" vertex="1" parent="5jbSg2TQ_fppJZuNqXfu-46">
          <mxGeometry y="30" width="140" height="30" as="geometry" />
        </mxCell>
        <mxCell id="5jbSg2TQ_fppJZuNqXfu-48" value="input[1]" style="text;strokeColor=none;fillColor=none;align=left;verticalAlign=middle;spacingLeft=4;spacingRight=4;overflow=hidden;points=[[0,0.5],[1,0.5]];portConstraint=eastwest;rotatable=0;whiteSpace=wrap;html=1;fontFamily=Helvetica;fontSize=12;fontColor=default;fontStyle=0;" vertex="1" parent="5jbSg2TQ_fppJZuNqXfu-46">
          <mxGeometry y="60" width="140" height="30" as="geometry" />
        </mxCell>
        <mxCell id="5jbSg2TQ_fppJZuNqXfu-49" value="output" style="text;strokeColor=none;fillColor=none;align=left;verticalAlign=middle;spacingLeft=4;spacingRight=4;overflow=hidden;points=[[0,0.5],[1,0.5]];portConstraint=eastwest;rotatable=0;whiteSpace=wrap;html=1;fontFamily=Helvetica;fontSize=12;fontColor=default;fontStyle=0;" vertex="1" parent="5jbSg2TQ_fppJZuNqXfu-46">
          <mxGeometry y="90" width="140" height="30" as="geometry" />
        </mxCell>
        <mxCell id="5jbSg2TQ_fppJZuNqXfu-37" style="edgeStyle=orthogonalEdgeStyle;rounded=0;orthogonalLoop=1;jettySize=auto;html=1;exitX=1;exitY=0.5;exitDx=0;exitDy=0;fontFamily=Helvetica;fontSize=12;fontColor=default;fontStyle=0;entryX=0;entryY=0.5;entryDx=0;entryDy=0;" edge="1" parent="5jbSg2TQ_fppJZuNqXfu-11" source="5jbSg2TQ_fppJZuNqXfu-32" target="5jbSg2TQ_fppJZuNqXfu-47">
          <mxGeometry relative="1" as="geometry">
            <mxPoint x="230" y="280" as="targetPoint" />
          </mxGeometry>
        </mxCell>
        <mxCell id="5jbSg2TQ_fppJZuNqXfu-50" style="edgeStyle=orthogonalEdgeStyle;rounded=0;orthogonalLoop=1;jettySize=auto;html=1;exitX=1;exitY=0.5;exitDx=0;exitDy=0;entryX=0;entryY=0.5;entryDx=0;entryDy=0;fontFamily=Helvetica;fontSize=12;fontColor=default;fontStyle=0;" edge="1" parent="5jbSg2TQ_fppJZuNqXfu-11" source="5jbSg2TQ_fppJZuNqXfu-33" target="5jbSg2TQ_fppJZuNqXfu-48">
          <mxGeometry relative="1" as="geometry" />
        </mxCell>
        <mxCell id="5jbSg2TQ_fppJZuNqXfu-54" style="edgeStyle=elbowEdgeStyle;rounded=0;orthogonalLoop=1;jettySize=auto;html=1;exitX=0;exitY=0.5;exitDx=0;exitDy=0;entryX=1;entryY=0.5;entryDx=0;entryDy=0;fontFamily=Helvetica;fontSize=12;fontColor=default;fontStyle=0;" edge="1" parent="5jbSg2TQ_fppJZuNqXfu-11" source="5jbSg2TQ_fppJZuNqXfu-49" target="5jbSg2TQ_fppJZuNqXfu-34">
          <mxGeometry relative="1" as="geometry">
            <Array as="points">
              <mxPoint x="210" y="270" />
            </Array>
          </mxGeometry>
        </mxCell>
        <mxCell id="5jbSg2TQ_fppJZuNqXfu-59" value="Merge Pipeline" style="shape=process;whiteSpace=wrap;html=1;backgroundOutline=1;rounded=0;shadow=0;glass=0;strokeColor=default;align=center;verticalAlign=middle;fontFamily=Helvetica;fontSize=12;fontColor=default;fontStyle=0;fillColor=none;" vertex="1" parent="5jbSg2TQ_fppJZuNqXfu-11">
          <mxGeometry x="310" y="420" width="120" height="60" as="geometry" />
        </mxCell>
        <mxCell id="5jbSg2TQ_fppJZuNqXfu-65" value="FrameBuffer" style="swimlane;fontStyle=0;childLayout=stackLayout;horizontal=1;startSize=30;horizontalStack=0;resizeParent=1;resizeParentMax=0;resizeLast=0;collapsible=1;marginBottom=0;whiteSpace=wrap;html=1;rounded=0;shadow=0;glass=0;strokeColor=default;align=center;verticalAlign=middle;fontFamily=Helvetica;fontSize=12;fontColor=default;fillColor=none;" vertex="1" parent="5jbSg2TQ_fppJZuNqXfu-10">
          <mxGeometry x="50" y="50" width="140" height="240" as="geometry" />
        </mxCell>
        <mxCell id="5jbSg2TQ_fppJZuNqXfu-70" value="Built-in" style="text;html=1;align=center;verticalAlign=middle;resizable=0;points=[];autosize=1;strokeColor=none;fillColor=none;fontFamily=Helvetica;fontSize=12;fontColor=default;fontStyle=0;" vertex="1" parent="5jbSg2TQ_fppJZuNqXfu-65">
          <mxGeometry y="30" width="140" height="30" as="geometry" />
        </mxCell>
        <mxCell id="5jbSg2TQ_fppJZuNqXfu-5" value="Color Attachments" style="swimlane;fontStyle=0;childLayout=stackLayout;horizontal=1;startSize=30;horizontalStack=0;resizeParent=1;resizeParentMax=0;resizeLast=0;collapsible=1;marginBottom=0;whiteSpace=wrap;html=1;rounded=0;shadow=0;glass=0;fillColor=none;" vertex="1" parent="5jbSg2TQ_fppJZuNqXfu-65">
          <mxGeometry y="60" width="140" height="180" as="geometry" />
        </mxCell>
        <mxCell id="5jbSg2TQ_fppJZuNqXfu-6" value="Batch Result" style="text;strokeColor=none;fillColor=none;align=left;verticalAlign=middle;spacingLeft=4;spacingRight=4;overflow=hidden;points=[[0,0.5],[1,0.5]];portConstraint=eastwest;rotatable=0;whiteSpace=wrap;html=1;" vertex="1" parent="5jbSg2TQ_fppJZuNqXfu-5">
          <mxGeometry y="30" width="140" height="30" as="geometry" />
        </mxCell>
        <mxCell id="5jbSg2TQ_fppJZuNqXfu-7" value="Blur" style="text;strokeColor=none;fillColor=none;align=left;verticalAlign=middle;spacingLeft=4;spacingRight=4;overflow=hidden;points=[[0,0.5],[1,0.5]];portConstraint=eastwest;rotatable=0;whiteSpace=wrap;html=1;" vertex="1" parent="5jbSg2TQ_fppJZuNqXfu-5">
          <mxGeometry y="60" width="140" height="30" as="geometry" />
        </mxCell>
        <mxCell id="5jbSg2TQ_fppJZuNqXfu-8" value="Merged" style="text;strokeColor=none;fillColor=none;align=left;verticalAlign=middle;spacingLeft=4;spacingRight=4;overflow=hidden;points=[[0,0.5],[1,0.5]];portConstraint=eastwest;rotatable=0;whiteSpace=wrap;html=1;" vertex="1" parent="5jbSg2TQ_fppJZuNqXfu-5">
          <mxGeometry y="90" width="140" height="30" as="geometry" />
        </mxCell>
        <mxCell id="5jbSg2TQ_fppJZuNqXfu-1" value="Depth Stencil" style="swimlane;fontStyle=0;childLayout=stackLayout;horizontal=1;startSize=30;horizontalStack=0;resizeParent=1;resizeParentMax=0;resizeLast=0;collapsible=1;marginBottom=0;whiteSpace=wrap;html=1;" vertex="1" parent="5jbSg2TQ_fppJZuNqXfu-5">
          <mxGeometry y="120" width="140" height="60" as="geometry" />
        </mxCell>
        <mxCell id="5jbSg2TQ_fppJZuNqXfu-74" style="edgeStyle=orthogonalEdgeStyle;rounded=0;orthogonalLoop=1;jettySize=auto;html=1;exitX=1;exitY=0.5;exitDx=0;exitDy=0;fontFamily=Helvetica;fontSize=12;fontColor=default;fontStyle=0;entryX=0;entryY=0.5;entryDx=0;entryDy=0;dashed=1;strokeColor=default;align=center;verticalAlign=middle;labelBackgroundColor=default;endArrow=box;endFill=0;" edge="1" parent="5jbSg2TQ_fppJZuNqXfu-10" source="5jbSg2TQ_fppJZuNqXfu-6" target="5jbSg2TQ_fppJZuNqXfu-32">
          <mxGeometry relative="1" as="geometry">
            <mxPoint x="180" y="160" as="targetPoint" />
          </mxGeometry>
        </mxCell>
        <mxCell id="5jbSg2TQ_fppJZuNqXfu-73" style="edgeStyle=orthogonalEdgeStyle;rounded=0;orthogonalLoop=1;jettySize=auto;html=1;exitX=1;exitY=0.5;exitDx=0;exitDy=0;fontFamily=Helvetica;fontSize=12;fontColor=default;fontStyle=0;dashed=1;strokeColor=default;align=center;verticalAlign=middle;labelBackgroundColor=default;endArrow=box;endFill=0;" edge="1" parent="5jbSg2TQ_fppJZuNqXfu-10" source="5jbSg2TQ_fppJZuNqXfu-7" target="5jbSg2TQ_fppJZuNqXfu-33">
          <mxGeometry relative="1" as="geometry" />
        </mxCell>
        <mxCell id="5jbSg2TQ_fppJZuNqXfu-72" style="edgeStyle=orthogonalEdgeStyle;rounded=0;orthogonalLoop=1;jettySize=auto;html=1;exitX=1;exitY=0.5;exitDx=0;exitDy=0;fontFamily=Helvetica;fontSize=12;fontColor=default;fontStyle=0;dashed=1;endArrow=box;endFill=0;" edge="1" parent="5jbSg2TQ_fppJZuNqXfu-10" source="5jbSg2TQ_fppJZuNqXfu-8" target="5jbSg2TQ_fppJZuNqXfu-34">
          <mxGeometry relative="1" as="geometry" />
        </mxCell>
        <mxCell id="5jbSg2TQ_fppJZuNqXfu-76" value="Image Views" style="swimlane;fontStyle=0;childLayout=stackLayout;horizontal=1;startSize=30;horizontalStack=0;resizeParent=1;resizeParentMax=0;resizeLast=0;collapsible=1;marginBottom=0;whiteSpace=wrap;html=1;rounded=0;shadow=0;glass=0;strokeColor=#FFE599;align=center;verticalAlign=middle;fontFamily=Helvetica;fontSize=12;fontColor=default;fillColor=none;dashed=1;" vertex="1" parent="1">
          <mxGeometry x="280" y="-750" width="140" height="210" as="geometry" />
        </mxCell>
        <mxCell id="5jbSg2TQ_fppJZuNqXfu-77" value="Batch" style="text;strokeColor=none;fillColor=none;align=left;verticalAlign=middle;spacingLeft=4;spacingRight=4;overflow=hidden;points=[[0,0.5],[1,0.5]];portConstraint=eastwest;rotatable=0;whiteSpace=wrap;html=1;fontFamily=Helvetica;fontSize=12;fontColor=default;fontStyle=0;" vertex="1" parent="5jbSg2TQ_fppJZuNqXfu-76">
          <mxGeometry y="30" width="140" height="30" as="geometry" />
        </mxCell>
        <mxCell id="5jbSg2TQ_fppJZuNqXfu-88" style="text;strokeColor=none;fillColor=none;align=left;verticalAlign=middle;spacingLeft=4;spacingRight=4;overflow=hidden;points=[[0,0.5],[1,0.5]];portConstraint=eastwest;rotatable=0;whiteSpace=wrap;html=1;fontFamily=Helvetica;fontSize=12;fontColor=default;fontStyle=0;" vertex="1" parent="5jbSg2TQ_fppJZuNqXfu-76">
          <mxGeometry y="60" width="140" height="30" as="geometry" />
        </mxCell>
        <mxCell id="5jbSg2TQ_fppJZuNqXfu-78" value="Blur" style="text;strokeColor=none;fillColor=none;align=left;verticalAlign=middle;spacingLeft=4;spacingRight=4;overflow=hidden;points=[[0,0.5],[1,0.5]];portConstraint=eastwest;rotatable=0;whiteSpace=wrap;html=1;fontFamily=Helvetica;fontSize=12;fontColor=default;fontStyle=0;" vertex="1" parent="5jbSg2TQ_fppJZuNqXfu-76">
          <mxGeometry y="90" width="140" height="30" as="geometry" />
        </mxCell>
        <mxCell id="5jbSg2TQ_fppJZuNqXfu-79" value="Merge" style="text;strokeColor=none;fillColor=none;align=left;verticalAlign=middle;spacingLeft=4;spacingRight=4;overflow=hidden;points=[[0,0.5],[1,0.5]];portConstraint=eastwest;rotatable=0;whiteSpace=wrap;html=1;fontFamily=Helvetica;fontSize=12;fontColor=default;fontStyle=0;" vertex="1" parent="5jbSg2TQ_fppJZuNqXfu-76">
          <mxGeometry y="120" width="140" height="30" as="geometry" />
        </mxCell>
        <mxCell id="5jbSg2TQ_fppJZuNqXfu-90" style="text;strokeColor=none;fillColor=none;align=left;verticalAlign=middle;spacingLeft=4;spacingRight=4;overflow=hidden;points=[[0,0.5],[1,0.5]];portConstraint=eastwest;rotatable=0;whiteSpace=wrap;html=1;fontFamily=Helvetica;fontSize=12;fontColor=default;fontStyle=0;" vertex="1" parent="5jbSg2TQ_fppJZuNqXfu-76">
          <mxGeometry y="150" width="140" height="30" as="geometry" />
        </mxCell>
        <mxCell id="5jbSg2TQ_fppJZuNqXfu-91" value="SwapChain" style="text;strokeColor=none;fillColor=none;align=left;verticalAlign=middle;spacingLeft=4;spacingRight=4;overflow=hidden;points=[[0,0.5],[1,0.5]];portConstraint=eastwest;rotatable=0;whiteSpace=wrap;html=1;fontFamily=Helvetica;fontSize=12;fontColor=default;fontStyle=0;" vertex="1" parent="5jbSg2TQ_fppJZuNqXfu-76">
          <mxGeometry y="180" width="140" height="30" as="geometry" />
        </mxCell>
        <mxCell id="5jbSg2TQ_fppJZuNqXfu-80" value="Images" style="swimlane;fontStyle=0;childLayout=stackLayout;horizontal=1;startSize=30;horizontalStack=0;resizeParent=1;resizeParentMax=0;resizeLast=0;collapsible=1;marginBottom=0;whiteSpace=wrap;html=1;rounded=0;shadow=0;glass=0;strokeColor=#FFE599;align=center;verticalAlign=middle;fontFamily=Helvetica;fontSize=12;fontColor=default;fillColor=none;strokeWidth=2;" vertex="1" parent="1">
          <mxGeometry x="50" y="-750" width="140" height="210" as="geometry" />
        </mxCell>
        <mxCell id="5jbSg2TQ_fppJZuNqXfu-81" value="Batch Attachment" style="text;strokeColor=none;fillColor=none;align=left;verticalAlign=middle;spacingLeft=4;spacingRight=4;overflow=hidden;points=[[0,0.5],[1,0.5]];portConstraint=eastwest;rotatable=0;whiteSpace=wrap;html=1;fontFamily=Helvetica;fontSize=12;fontColor=default;fontStyle=0;" vertex="1" parent="5jbSg2TQ_fppJZuNqXfu-80">
          <mxGeometry y="30" width="140" height="30" as="geometry" />
        </mxCell>
        <mxCell id="5jbSg2TQ_fppJZuNqXfu-89" style="text;strokeColor=none;fillColor=none;align=left;verticalAlign=middle;spacingLeft=4;spacingRight=4;overflow=hidden;points=[[0,0.5],[1,0.5]];portConstraint=eastwest;rotatable=0;whiteSpace=wrap;html=1;fontFamily=Helvetica;fontSize=12;fontColor=default;fontStyle=0;" vertex="1" parent="5jbSg2TQ_fppJZuNqXfu-80">
          <mxGeometry y="60" width="140" height="30" as="geometry" />
        </mxCell>
        <mxCell id="5jbSg2TQ_fppJZuNqXfu-82" value="Blur Attachment" style="text;strokeColor=none;fillColor=none;align=left;verticalAlign=middle;spacingLeft=4;spacingRight=4;overflow=hidden;points=[[0,0.5],[1,0.5]];portConstraint=eastwest;rotatable=0;whiteSpace=wrap;html=1;fontFamily=Helvetica;fontSize=12;fontColor=default;fontStyle=0;" vertex="1" parent="5jbSg2TQ_fppJZuNqXfu-80">
          <mxGeometry y="90" width="140" height="30" as="geometry" />
        </mxCell>
        <mxCell id="5jbSg2TQ_fppJZuNqXfu-87" value="Merge Attachment" style="text;strokeColor=none;fillColor=none;align=left;verticalAlign=middle;spacingLeft=4;spacingRight=4;overflow=hidden;points=[[0,0.5],[1,0.5]];portConstraint=eastwest;rotatable=0;whiteSpace=wrap;html=1;fontFamily=Helvetica;fontSize=12;fontColor=default;fontStyle=0;" vertex="1" parent="5jbSg2TQ_fppJZuNqXfu-80">
          <mxGeometry y="120" width="140" height="30" as="geometry" />
        </mxCell>
        <mxCell id="5jbSg2TQ_fppJZuNqXfu-86" style="text;strokeColor=none;fillColor=none;align=left;verticalAlign=middle;spacingLeft=4;spacingRight=4;overflow=hidden;points=[[0,0.5],[1,0.5]];portConstraint=eastwest;rotatable=0;whiteSpace=wrap;html=1;fontFamily=Helvetica;fontSize=12;fontColor=default;fontStyle=0;" vertex="1" parent="5jbSg2TQ_fppJZuNqXfu-80">
          <mxGeometry y="150" width="140" height="30" as="geometry" />
        </mxCell>
        <mxCell id="5jbSg2TQ_fppJZuNqXfu-83" value="SwapChain Image" style="text;strokeColor=none;fillColor=none;align=left;verticalAlign=middle;spacingLeft=4;spacingRight=4;overflow=hidden;points=[[0,0.5],[1,0.5]];portConstraint=eastwest;rotatable=0;whiteSpace=wrap;html=1;fontFamily=Helvetica;fontSize=12;fontColor=default;fontStyle=0;" vertex="1" parent="5jbSg2TQ_fppJZuNqXfu-80">
          <mxGeometry y="180" width="140" height="30" as="geometry" />
        </mxCell>
        <mxCell id="5jbSg2TQ_fppJZuNqXfu-92" style="edgeStyle=orthogonalEdgeStyle;rounded=0;orthogonalLoop=1;jettySize=auto;html=1;exitX=1;exitY=0.5;exitDx=0;exitDy=0;entryX=0;entryY=0.5;entryDx=0;entryDy=0;fontFamily=Helvetica;fontSize=12;fontColor=default;fontStyle=0;dashed=1;strokeColor=default;align=center;verticalAlign=middle;labelBackgroundColor=default;endArrow=box;endFill=0;" edge="1" parent="1" source="5jbSg2TQ_fppJZuNqXfu-81" target="5jbSg2TQ_fppJZuNqXfu-77">
          <mxGeometry relative="1" as="geometry" />
        </mxCell>
        <mxCell id="5jbSg2TQ_fppJZuNqXfu-94" style="edgeStyle=orthogonalEdgeStyle;rounded=0;orthogonalLoop=1;jettySize=auto;html=1;exitX=1;exitY=0.5;exitDx=0;exitDy=0;entryX=0;entryY=0.5;entryDx=0;entryDy=0;fontFamily=Helvetica;fontSize=12;fontColor=default;fontStyle=0;dashed=1;strokeColor=default;align=center;verticalAlign=middle;labelBackgroundColor=default;endArrow=box;endFill=0;" edge="1" parent="1" source="5jbSg2TQ_fppJZuNqXfu-82" target="5jbSg2TQ_fppJZuNqXfu-78">
          <mxGeometry relative="1" as="geometry" />
        </mxCell>
        <mxCell id="5jbSg2TQ_fppJZuNqXfu-95" style="edgeStyle=orthogonalEdgeStyle;rounded=0;orthogonalLoop=1;jettySize=auto;html=1;exitX=1;exitY=0.5;exitDx=0;exitDy=0;entryX=0;entryY=0.5;entryDx=0;entryDy=0;fontFamily=Helvetica;fontSize=12;fontColor=default;fontStyle=0;dashed=1;strokeColor=default;align=center;verticalAlign=middle;labelBackgroundColor=default;endArrow=box;endFill=0;" edge="1" parent="1" source="5jbSg2TQ_fppJZuNqXfu-87" target="5jbSg2TQ_fppJZuNqXfu-79">
          <mxGeometry relative="1" as="geometry" />
        </mxCell>
        <mxCell id="5jbSg2TQ_fppJZuNqXfu-96" style="edgeStyle=orthogonalEdgeStyle;rounded=0;orthogonalLoop=1;jettySize=auto;html=1;exitX=1;exitY=0.5;exitDx=0;exitDy=0;entryX=0;entryY=0.5;entryDx=0;entryDy=0;fontFamily=Helvetica;fontSize=12;fontColor=default;fontStyle=0;dashed=1;strokeColor=default;align=center;verticalAlign=middle;labelBackgroundColor=default;endArrow=box;endFill=0;" edge="1" parent="1" source="5jbSg2TQ_fppJZuNqXfu-83" target="5jbSg2TQ_fppJZuNqXfu-91">
          <mxGeometry relative="1" as="geometry" />
        </mxCell>
        <mxCell id="5jbSg2TQ_fppJZuNqXfu-97" style="edgeStyle=orthogonalEdgeStyle;rounded=0;orthogonalLoop=1;jettySize=auto;html=1;exitX=1;exitY=0.5;exitDx=0;exitDy=0;entryX=0;entryY=0.5;entryDx=0;entryDy=0;fontFamily=Helvetica;fontSize=12;fontColor=default;fontStyle=0;dashed=1;strokeColor=default;align=center;verticalAlign=middle;labelBackgroundColor=default;endArrow=box;endFill=0;" edge="1" parent="1" source="5jbSg2TQ_fppJZuNqXfu-77" target="5jbSg2TQ_fppJZuNqXfu-6">
          <mxGeometry relative="1" as="geometry" />
        </mxCell>
        <mxCell id="5jbSg2TQ_fppJZuNqXfu-98" style="edgeStyle=orthogonalEdgeStyle;rounded=0;orthogonalLoop=1;jettySize=auto;html=1;exitX=1;exitY=0.5;exitDx=0;exitDy=0;entryX=0;entryY=0.5;entryDx=0;entryDy=0;fontFamily=Helvetica;fontSize=12;fontColor=default;fontStyle=0;dashed=1;strokeColor=default;align=center;verticalAlign=middle;labelBackgroundColor=default;endArrow=box;endFill=0;" edge="1" parent="1" source="5jbSg2TQ_fppJZuNqXfu-78" target="5jbSg2TQ_fppJZuNqXfu-7">
          <mxGeometry relative="1" as="geometry" />
        </mxCell>
        <mxCell id="5jbSg2TQ_fppJZuNqXfu-101" style="edgeStyle=orthogonalEdgeStyle;rounded=0;orthogonalLoop=1;jettySize=auto;html=1;exitX=1;exitY=0.5;exitDx=0;exitDy=0;entryX=0;entryY=0.5;entryDx=0;entryDy=0;fontFamily=Helvetica;fontSize=12;fontColor=default;fontStyle=0;" edge="1" parent="1" source="5jbSg2TQ_fppJZuNqXfu-99" target="5jbSg2TQ_fppJZuNqXfu-100">
          <mxGeometry relative="1" as="geometry" />
        </mxCell>
        <mxCell id="5jbSg2TQ_fppJZuNqXfu-99" value="Batch Draw" style="shape=process;whiteSpace=wrap;html=1;backgroundOutline=1;rounded=0;shadow=0;glass=0;strokeColor=default;align=center;verticalAlign=middle;fontFamily=Helvetica;fontSize=12;fontColor=default;fontStyle=0;fillColor=none;" vertex="1" parent="1">
          <mxGeometry x="180" y="100" width="120" height="60" as="geometry" />
        </mxCell>
        <mxCell id="5jbSg2TQ_fppJZuNqXfu-106" style="edgeStyle=orthogonalEdgeStyle;rounded=0;orthogonalLoop=1;jettySize=auto;html=1;exitX=1;exitY=0.5;exitDx=0;exitDy=0;entryX=0;entryY=0.5;entryDx=0;entryDy=0;fontFamily=Helvetica;fontSize=12;fontColor=default;fontStyle=0;" edge="1" parent="1" source="5jbSg2TQ_fppJZuNqXfu-100" target="5jbSg2TQ_fppJZuNqXfu-105">
          <mxGeometry relative="1" as="geometry" />
        </mxCell>
        <mxCell id="5jbSg2TQ_fppJZuNqXfu-100" value="Batch Merge" style="shape=process;whiteSpace=wrap;html=1;backgroundOutline=1;rounded=0;shadow=0;glass=0;strokeColor=default;align=center;verticalAlign=middle;fontFamily=Helvetica;fontSize=12;fontColor=default;fontStyle=0;fillColor=none;" vertex="1" parent="1">
          <mxGeometry x="410" y="100" width="120" height="60" as="geometry" />
        </mxCell>
        <mxCell id="5jbSg2TQ_fppJZuNqXfu-108" style="edgeStyle=orthogonalEdgeStyle;rounded=0;orthogonalLoop=1;jettySize=auto;html=1;exitX=1;exitY=0.5;exitDx=0;exitDy=0;entryX=0;entryY=0.5;entryDx=0;entryDy=0;fontFamily=Helvetica;fontSize=12;fontColor=default;fontStyle=0;" edge="1" parent="1" source="5jbSg2TQ_fppJZuNqXfu-105" target="5jbSg2TQ_fppJZuNqXfu-107">
          <mxGeometry relative="1" as="geometry" />
        </mxCell>
        <mxCell id="5jbSg2TQ_fppJZuNqXfu-105" value="Game UI Merge" style="shape=process;whiteSpace=wrap;html=1;backgroundOutline=1;rounded=0;shadow=0;glass=0;strokeColor=default;align=center;verticalAlign=middle;fontFamily=Helvetica;fontSize=12;fontColor=default;fontStyle=0;fillColor=none;" vertex="1" parent="1">
          <mxGeometry x="770" y="230" width="190" height="60" as="geometry" />
        </mxCell>
        <mxCell id="5jbSg2TQ_fppJZuNqXfu-107" value="Swap Chain" style="shape=process;whiteSpace=wrap;html=1;backgroundOutline=1;rounded=0;shadow=0;glass=0;strokeColor=default;align=center;verticalAlign=middle;fontFamily=Helvetica;fontSize=12;fontColor=default;fontStyle=0;fillColor=none;" vertex="1" parent="1">
          <mxGeometry x="1040" y="230" width="120" height="60" as="geometry" />
        </mxCell>
        <mxCell id="5jbSg2TQ_fppJZuNqXfu-109" value="Merge" style="swimlane;whiteSpace=wrap;html=1;rounded=0;shadow=0;glass=0;align=center;verticalAlign=middle;fontFamily=Helvetica;fontSize=12;fontStyle=0;fillColor=none;perimeterSpacing=1;" vertex="1" parent="1">
          <mxGeometry x="780" y="-2240" width="820" height="1350" as="geometry" />
        </mxCell>
        <mxCell id="5jbSg2TQ_fppJZuNqXfu-110" value="RenderPass" style="swimlane;whiteSpace=wrap;html=1;rounded=0;shadow=0;glass=0;strokeColor=default;align=center;verticalAlign=middle;fontFamily=Helvetica;fontSize=12;fontColor=default;fontStyle=0;fillColor=none;strokeWidth=2;" vertex="1" parent="5jbSg2TQ_fppJZuNqXfu-109">
          <mxGeometry x="290" y="60" width="490" height="1190" as="geometry" />
        </mxCell>
        <mxCell id="5jbSg2TQ_fppJZuNqXfu-111" value="Attachments" style="swimlane;fontStyle=0;childLayout=stackLayout;horizontal=1;startSize=30;horizontalStack=0;resizeParent=1;resizeParentMax=0;resizeLast=0;collapsible=1;marginBottom=0;whiteSpace=wrap;html=1;rounded=0;shadow=0;glass=0;strokeColor=default;align=center;verticalAlign=middle;fontFamily=Helvetica;fontSize=12;fontColor=default;fillColor=none;" vertex="1" parent="5jbSg2TQ_fppJZuNqXfu-110">
          <mxGeometry x="30" y="50" width="140" height="150" as="geometry" />
        </mxCell>
        <mxCell id="5jbSg2TQ_fppJZuNqXfu-112" value="Input" style="text;strokeColor=#85B87B;fillColor=none;align=left;verticalAlign=middle;spacingLeft=4;spacingRight=4;overflow=hidden;points=[[0,0.5],[1,0.5]];portConstraint=eastwest;rotatable=0;whiteSpace=wrap;html=1;fontFamily=Helvetica;fontSize=12;fontStyle=0;" vertex="1" parent="5jbSg2TQ_fppJZuNqXfu-111">
          <mxGeometry y="30" width="140" height="30" as="geometry" />
        </mxCell>
        <mxCell id="5jbSg2TQ_fppJZuNqXfu-113" value="Pingpong 1" style="text;strokeColor=#85b87b;fillColor=none;align=left;verticalAlign=middle;spacingLeft=4;spacingRight=4;overflow=hidden;points=[[0,0.5],[1,0.5]];portConstraint=eastwest;rotatable=0;whiteSpace=wrap;html=1;fontFamily=Helvetica;fontSize=12;fontColor=default;fontStyle=0;" vertex="1" parent="5jbSg2TQ_fppJZuNqXfu-111">
          <mxGeometry y="60" width="140" height="30" as="geometry" />
        </mxCell>
        <mxCell id="5jbSg2TQ_fppJZuNqXfu-114" value="Pingpong 2" style="text;strokeColor=#85b87b;fillColor=none;align=left;verticalAlign=middle;spacingLeft=4;spacingRight=4;overflow=hidden;points=[[0,0.5],[1,0.5]];portConstraint=eastwest;rotatable=0;whiteSpace=wrap;html=1;fontFamily=Helvetica;fontSize=12;fontColor=default;fontStyle=0;" vertex="1" parent="5jbSg2TQ_fppJZuNqXfu-111">
          <mxGeometry y="90" width="140" height="30" as="geometry" />
        </mxCell>
        <mxCell id="5jbSg2TQ_fppJZuNqXfu-137" value="Output" style="text;strokeColor=#85b87b;fillColor=none;align=left;verticalAlign=middle;spacingLeft=4;spacingRight=4;overflow=hidden;points=[[0,0.5],[1,0.5]];portConstraint=eastwest;rotatable=0;whiteSpace=wrap;html=1;fontFamily=Helvetica;fontSize=12;fontColor=default;fontStyle=0;" vertex="1" parent="5jbSg2TQ_fppJZuNqXfu-111">
          <mxGeometry y="120" width="140" height="30" as="geometry" />
        </mxCell>
        <mxCell id="5jbSg2TQ_fppJZuNqXfu-125" style="edgeStyle=elbowEdgeStyle;rounded=0;orthogonalLoop=1;jettySize=auto;html=1;exitX=0;exitY=0.5;exitDx=0;exitDy=0;fontFamily=Helvetica;fontSize=12;fontColor=default;fontStyle=0;entryX=1;entryY=0.5;entryDx=0;entryDy=0;" edge="1" parent="5jbSg2TQ_fppJZuNqXfu-110" source="5jbSg2TQ_fppJZuNqXfu-149" target="5jbSg2TQ_fppJZuNqXfu-113">
          <mxGeometry relative="1" as="geometry">
            <Array as="points">
              <mxPoint x="210" y="270" />
            </Array>
            <mxPoint x="171" y="120" as="targetPoint" />
          </mxGeometry>
        </mxCell>
        <mxCell id="5jbSg2TQ_fppJZuNqXfu-126" value="Merge Pipeline" style="shape=process;whiteSpace=wrap;html=1;backgroundOutline=1;rounded=0;shadow=0;glass=0;strokeColor=default;align=center;verticalAlign=middle;fontFamily=Helvetica;fontSize=12;fontColor=default;fontStyle=0;fillColor=none;" vertex="1" parent="5jbSg2TQ_fppJZuNqXfu-110">
          <mxGeometry x="320" y="670" width="120" height="60" as="geometry" />
        </mxCell>
        <mxCell id="5jbSg2TQ_fppJZuNqXfu-144" value="Subpass[0]" style="swimlane;whiteSpace=wrap;html=1;rounded=0;shadow=0;glass=0;strokeColor=#999999;align=center;verticalAlign=middle;fontFamily=Helvetica;fontSize=12;fontColor=default;fontStyle=0;fillColor=none;startSize=30;strokeWidth=1;dashed=1;dashPattern=12 12;" vertex="1" parent="5jbSg2TQ_fppJZuNqXfu-110">
          <mxGeometry x="290" y="60" width="180" height="260" as="geometry">
            <mxRectangle x="280" y="100" width="100" height="30" as="alternateBounds" />
          </mxGeometry>
        </mxCell>
        <mxCell id="5jbSg2TQ_fppJZuNqXfu-145" value="Dependencies" style="swimlane;fontStyle=0;childLayout=stackLayout;horizontal=1;startSize=30;horizontalStack=0;resizeParent=1;resizeParentMax=0;resizeLast=0;collapsible=1;marginBottom=0;whiteSpace=wrap;html=1;rounded=0;shadow=0;glass=0;strokeColor=default;align=center;verticalAlign=middle;fontFamily=Helvetica;fontSize=12;fontColor=default;fillColor=none;" vertex="1" parent="5jbSg2TQ_fppJZuNqXfu-144">
          <mxGeometry x="20" y="50" width="140" height="60" as="geometry" />
        </mxCell>
        <mxCell id="5jbSg2TQ_fppJZuNqXfu-146" value="[0]" style="text;strokeColor=none;fillColor=none;align=left;verticalAlign=middle;spacingLeft=4;spacingRight=4;overflow=hidden;points=[[0,0.5],[1,0.5]];portConstraint=eastwest;rotatable=0;whiteSpace=wrap;html=1;fontFamily=Helvetica;fontSize=12;fontColor=default;fontStyle=0;" vertex="1" parent="5jbSg2TQ_fppJZuNqXfu-145">
          <mxGeometry y="30" width="140" height="30" as="geometry" />
        </mxCell>
        <mxCell id="5jbSg2TQ_fppJZuNqXfu-147" value="AttachmentUsed" style="swimlane;fontStyle=0;childLayout=stackLayout;horizontal=1;startSize=30;horizontalStack=0;resizeParent=1;resizeParentMax=0;resizeLast=0;collapsible=1;marginBottom=0;whiteSpace=wrap;html=1;rounded=0;shadow=0;glass=0;strokeColor=default;align=center;verticalAlign=middle;fontFamily=Helvetica;fontSize=12;fontColor=default;fillColor=none;" vertex="1" parent="5jbSg2TQ_fppJZuNqXfu-144">
          <mxGeometry x="20" y="140" width="140" height="90" as="geometry">
            <mxRectangle x="20" y="140" width="130" height="30" as="alternateBounds" />
          </mxGeometry>
        </mxCell>
        <mxCell id="5jbSg2TQ_fppJZuNqXfu-148" value="input" style="text;strokeColor=none;fillColor=none;align=left;verticalAlign=middle;spacingLeft=4;spacingRight=4;overflow=hidden;points=[[0,0.5],[1,0.5]];portConstraint=eastwest;rotatable=0;whiteSpace=wrap;html=1;fontFamily=Helvetica;fontSize=12;fontColor=default;fontStyle=0;" vertex="1" parent="5jbSg2TQ_fppJZuNqXfu-147">
          <mxGeometry y="30" width="140" height="30" as="geometry" />
        </mxCell>
        <mxCell id="5jbSg2TQ_fppJZuNqXfu-149" value="output" style="text;strokeColor=none;fillColor=none;align=left;verticalAlign=middle;spacingLeft=4;spacingRight=4;overflow=hidden;points=[[0,0.5],[1,0.5]];portConstraint=eastwest;rotatable=0;whiteSpace=wrap;html=1;fontFamily=Helvetica;fontSize=12;fontColor=default;fontStyle=0;" vertex="1" parent="5jbSg2TQ_fppJZuNqXfu-147">
          <mxGeometry y="60" width="140" height="30" as="geometry" />
        </mxCell>
        <mxCell id="5jbSg2TQ_fppJZuNqXfu-151" style="edgeStyle=orthogonalEdgeStyle;rounded=0;orthogonalLoop=1;jettySize=auto;html=1;exitX=1;exitY=0.5;exitDx=0;exitDy=0;entryX=0;entryY=0.5;entryDx=0;entryDy=0;fontFamily=Helvetica;fontSize=12;fontColor=default;fontStyle=0;" edge="1" parent="5jbSg2TQ_fppJZuNqXfu-110" source="5jbSg2TQ_fppJZuNqXfu-112" target="5jbSg2TQ_fppJZuNqXfu-148">
          <mxGeometry relative="1" as="geometry" />
        </mxCell>
        <mxCell id="5jbSg2TQ_fppJZuNqXfu-116" value="Subpass[1]" style="swimlane;whiteSpace=wrap;html=1;rounded=0;shadow=0;glass=0;strokeColor=#999999;align=center;verticalAlign=middle;fontFamily=Helvetica;fontSize=12;fontColor=default;fontStyle=0;fillColor=none;startSize=30;strokeWidth=1;dashed=1;dashPattern=12 12;" vertex="1" parent="5jbSg2TQ_fppJZuNqXfu-110">
          <mxGeometry x="290" y="350" width="180" height="260" as="geometry">
            <mxRectangle x="280" y="100" width="100" height="30" as="alternateBounds" />
          </mxGeometry>
        </mxCell>
        <mxCell id="5jbSg2TQ_fppJZuNqXfu-117" value="Dependencies" style="swimlane;fontStyle=0;childLayout=stackLayout;horizontal=1;startSize=30;horizontalStack=0;resizeParent=1;resizeParentMax=0;resizeLast=0;collapsible=1;marginBottom=0;whiteSpace=wrap;html=1;rounded=0;shadow=0;glass=0;strokeColor=default;align=center;verticalAlign=middle;fontFamily=Helvetica;fontSize=12;fontColor=default;fillColor=none;" vertex="1" parent="5jbSg2TQ_fppJZuNqXfu-116">
          <mxGeometry x="20" y="50" width="140" height="60" as="geometry" />
        </mxCell>
        <mxCell id="5jbSg2TQ_fppJZuNqXfu-118" value="External" style="text;strokeColor=none;fillColor=none;align=left;verticalAlign=middle;spacingLeft=4;spacingRight=4;overflow=hidden;points=[[0,0.5],[1,0.5]];portConstraint=eastwest;rotatable=0;whiteSpace=wrap;html=1;fontFamily=Helvetica;fontSize=12;fontColor=default;fontStyle=0;" vertex="1" parent="5jbSg2TQ_fppJZuNqXfu-117">
          <mxGeometry y="30" width="140" height="30" as="geometry" />
        </mxCell>
        <mxCell id="5jbSg2TQ_fppJZuNqXfu-119" value="AttachmentUsed" style="swimlane;fontStyle=0;childLayout=stackLayout;horizontal=1;startSize=30;horizontalStack=0;resizeParent=1;resizeParentMax=0;resizeLast=0;collapsible=1;marginBottom=0;whiteSpace=wrap;html=1;rounded=0;shadow=0;glass=0;strokeColor=default;align=center;verticalAlign=middle;fontFamily=Helvetica;fontSize=12;fontColor=default;fillColor=none;" vertex="1" parent="5jbSg2TQ_fppJZuNqXfu-116">
          <mxGeometry x="20" y="140" width="140" height="90" as="geometry">
            <mxRectangle x="20" y="140" width="130" height="30" as="alternateBounds" />
          </mxGeometry>
        </mxCell>
        <mxCell id="5jbSg2TQ_fppJZuNqXfu-120" value="input" style="text;strokeColor=none;fillColor=none;align=left;verticalAlign=middle;spacingLeft=4;spacingRight=4;overflow=hidden;points=[[0,0.5],[1,0.5]];portConstraint=eastwest;rotatable=0;whiteSpace=wrap;html=1;fontFamily=Helvetica;fontSize=12;fontColor=default;fontStyle=0;" vertex="1" parent="5jbSg2TQ_fppJZuNqXfu-119">
          <mxGeometry y="30" width="140" height="30" as="geometry" />
        </mxCell>
        <mxCell id="5jbSg2TQ_fppJZuNqXfu-122" value="output" style="text;strokeColor=none;fillColor=none;align=left;verticalAlign=middle;spacingLeft=4;spacingRight=4;overflow=hidden;points=[[0,0.5],[1,0.5]];portConstraint=eastwest;rotatable=0;whiteSpace=wrap;html=1;fontFamily=Helvetica;fontSize=12;fontColor=default;fontStyle=0;" vertex="1" parent="5jbSg2TQ_fppJZuNqXfu-119">
          <mxGeometry y="60" width="140" height="30" as="geometry" />
        </mxCell>
        <mxCell id="5jbSg2TQ_fppJZuNqXfu-155" style="edgeStyle=orthogonalEdgeStyle;rounded=0;orthogonalLoop=1;jettySize=auto;html=1;exitX=1;exitY=0.5;exitDx=0;exitDy=0;entryX=0;entryY=0.5;entryDx=0;entryDy=0;fontFamily=Helvetica;fontSize=12;fontColor=default;fontStyle=0;strokeColor=default;align=center;verticalAlign=middle;labelBackgroundColor=default;endArrow=classic;" edge="1" parent="5jbSg2TQ_fppJZuNqXfu-110" source="5jbSg2TQ_fppJZuNqXfu-113" target="5jbSg2TQ_fppJZuNqXfu-120">
          <mxGeometry relative="1" as="geometry">
            <Array as="points">
              <mxPoint x="220" y="125" />
              <mxPoint x="220" y="535" />
            </Array>
          </mxGeometry>
        </mxCell>
        <mxCell id="5jbSg2TQ_fppJZuNqXfu-156" style="edgeStyle=orthogonalEdgeStyle;rounded=0;orthogonalLoop=1;jettySize=auto;html=1;exitX=0;exitY=0.5;exitDx=0;exitDy=0;entryX=1;entryY=0.5;entryDx=0;entryDy=0;fontFamily=Helvetica;fontSize=12;fontColor=default;fontStyle=0;" edge="1" parent="5jbSg2TQ_fppJZuNqXfu-110" source="5jbSg2TQ_fppJZuNqXfu-122" target="5jbSg2TQ_fppJZuNqXfu-114">
          <mxGeometry relative="1" as="geometry">
            <Array as="points">
              <mxPoint x="190" y="565" />
              <mxPoint x="190" y="155" />
            </Array>
          </mxGeometry>
        </mxCell>
        <mxCell id="5jbSg2TQ_fppJZuNqXfu-115" style="edgeStyle=orthogonalEdgeStyle;rounded=0;orthogonalLoop=1;jettySize=auto;html=1;exitX=0.5;exitY=1;exitDx=0;exitDy=0;entryX=0.5;entryY=0;entryDx=0;entryDy=0;fontFamily=Helvetica;fontSize=12;fontColor=default;fontStyle=0;endArrow=box;endFill=0;" edge="1" parent="5jbSg2TQ_fppJZuNqXfu-110" source="5jbSg2TQ_fppJZuNqXfu-116" target="5jbSg2TQ_fppJZuNqXfu-126">
          <mxGeometry relative="1" as="geometry" />
        </mxCell>
        <mxCell id="5jbSg2TQ_fppJZuNqXfu-127" value="FrameBuffer" style="swimlane;fontStyle=0;childLayout=stackLayout;horizontal=1;startSize=30;horizontalStack=0;resizeParent=1;resizeParentMax=0;resizeLast=0;collapsible=1;marginBottom=0;whiteSpace=wrap;html=1;rounded=0;shadow=0;glass=0;strokeColor=default;align=center;verticalAlign=middle;fontFamily=Helvetica;fontSize=12;fontColor=default;fillColor=none;" vertex="1" parent="5jbSg2TQ_fppJZuNqXfu-109">
          <mxGeometry x="50" y="50" width="140" height="270" as="geometry" />
        </mxCell>
        <mxCell id="5jbSg2TQ_fppJZuNqXfu-128" value="Built-in" style="text;html=1;align=center;verticalAlign=middle;resizable=0;points=[];autosize=1;strokeColor=none;fillColor=none;fontFamily=Helvetica;fontSize=12;fontColor=default;fontStyle=0;" vertex="1" parent="5jbSg2TQ_fppJZuNqXfu-127">
          <mxGeometry y="30" width="140" height="30" as="geometry" />
        </mxCell>
        <mxCell id="5jbSg2TQ_fppJZuNqXfu-129" value="Color Attachments" style="swimlane;fontStyle=0;childLayout=stackLayout;horizontal=1;startSize=30;horizontalStack=0;resizeParent=1;resizeParentMax=0;resizeLast=0;collapsible=1;marginBottom=0;whiteSpace=wrap;html=1;rounded=0;shadow=0;glass=0;fillColor=none;" vertex="1" parent="5jbSg2TQ_fppJZuNqXfu-127">
          <mxGeometry y="60" width="140" height="210" as="geometry" />
        </mxCell>
        <mxCell id="5jbSg2TQ_fppJZuNqXfu-130" value="Batch Result" style="text;strokeColor=none;fillColor=none;align=left;verticalAlign=middle;spacingLeft=4;spacingRight=4;overflow=hidden;points=[[0,0.5],[1,0.5]];portConstraint=eastwest;rotatable=0;whiteSpace=wrap;html=1;" vertex="1" parent="5jbSg2TQ_fppJZuNqXfu-129">
          <mxGeometry y="30" width="140" height="30" as="geometry" />
        </mxCell>
        <mxCell id="5jbSg2TQ_fppJZuNqXfu-141" value="Local Pingpong 1" style="text;strokeColor=none;fillColor=none;align=left;verticalAlign=middle;spacingLeft=4;spacingRight=4;overflow=hidden;points=[[0,0.5],[1,0.5]];portConstraint=eastwest;rotatable=0;whiteSpace=wrap;html=1;" vertex="1" parent="5jbSg2TQ_fppJZuNqXfu-129">
          <mxGeometry y="60" width="140" height="30" as="geometry" />
        </mxCell>
        <mxCell id="5jbSg2TQ_fppJZuNqXfu-140" value="Local Pingpong 2" style="text;strokeColor=none;fillColor=none;align=left;verticalAlign=middle;spacingLeft=4;spacingRight=4;overflow=hidden;points=[[0,0.5],[1,0.5]];portConstraint=eastwest;rotatable=0;whiteSpace=wrap;html=1;" vertex="1" parent="5jbSg2TQ_fppJZuNqXfu-129">
          <mxGeometry y="90" width="140" height="30" as="geometry" />
        </mxCell>
        <mxCell id="5jbSg2TQ_fppJZuNqXfu-131" value="Blur" style="text;strokeColor=none;fillColor=none;align=left;verticalAlign=middle;spacingLeft=4;spacingRight=4;overflow=hidden;points=[[0,0.5],[1,0.5]];portConstraint=eastwest;rotatable=0;whiteSpace=wrap;html=1;" vertex="1" parent="5jbSg2TQ_fppJZuNqXfu-129">
          <mxGeometry y="120" width="140" height="30" as="geometry" />
        </mxCell>
        <mxCell id="5jbSg2TQ_fppJZuNqXfu-133" value="Depth Stencil" style="swimlane;fontStyle=0;childLayout=stackLayout;horizontal=1;startSize=30;horizontalStack=0;resizeParent=1;resizeParentMax=0;resizeLast=0;collapsible=1;marginBottom=0;whiteSpace=wrap;html=1;" vertex="1" parent="5jbSg2TQ_fppJZuNqXfu-129">
          <mxGeometry y="150" width="140" height="60" as="geometry" />
        </mxCell>
        <mxCell id="5jbSg2TQ_fppJZuNqXfu-134" style="edgeStyle=orthogonalEdgeStyle;rounded=0;orthogonalLoop=1;jettySize=auto;html=1;exitX=1;exitY=0.5;exitDx=0;exitDy=0;fontFamily=Helvetica;fontSize=12;fontColor=default;fontStyle=0;entryX=0;entryY=0.5;entryDx=0;entryDy=0;dashed=1;strokeColor=default;align=center;verticalAlign=middle;labelBackgroundColor=default;endArrow=box;endFill=0;" edge="1" parent="5jbSg2TQ_fppJZuNqXfu-109" source="5jbSg2TQ_fppJZuNqXfu-130" target="5jbSg2TQ_fppJZuNqXfu-112">
          <mxGeometry relative="1" as="geometry">
            <mxPoint x="180" y="160" as="targetPoint" />
          </mxGeometry>
        </mxCell>
        <mxCell id="5jbSg2TQ_fppJZuNqXfu-135" style="edgeStyle=orthogonalEdgeStyle;rounded=0;orthogonalLoop=1;jettySize=auto;html=1;exitX=1;exitY=0.5;exitDx=0;exitDy=0;fontFamily=Helvetica;fontSize=12;fontColor=default;fontStyle=0;dashed=1;strokeColor=default;align=center;verticalAlign=middle;labelBackgroundColor=default;endArrow=box;endFill=0;entryX=0;entryY=0.5;entryDx=0;entryDy=0;" edge="1" parent="5jbSg2TQ_fppJZuNqXfu-109" source="5jbSg2TQ_fppJZuNqXfu-131" target="5jbSg2TQ_fppJZuNqXfu-137">
          <mxGeometry relative="1" as="geometry" />
        </mxCell>
        <mxCell id="5jbSg2TQ_fppJZuNqXfu-142" style="edgeStyle=orthogonalEdgeStyle;rounded=0;orthogonalLoop=1;jettySize=auto;html=1;exitX=1;exitY=0.5;exitDx=0;exitDy=0;entryX=0;entryY=0.5;entryDx=0;entryDy=0;fontFamily=Helvetica;fontSize=12;fontColor=default;fontStyle=0;dashed=1;strokeColor=default;align=center;verticalAlign=middle;labelBackgroundColor=default;endArrow=box;endFill=0;" edge="1" parent="5jbSg2TQ_fppJZuNqXfu-109" source="5jbSg2TQ_fppJZuNqXfu-141" target="5jbSg2TQ_fppJZuNqXfu-113">
          <mxGeometry relative="1" as="geometry" />
        </mxCell>
        <mxCell id="5jbSg2TQ_fppJZuNqXfu-143" style="edgeStyle=orthogonalEdgeStyle;rounded=0;orthogonalLoop=1;jettySize=auto;html=1;exitX=1;exitY=0.5;exitDx=0;exitDy=0;entryX=0;entryY=0.5;entryDx=0;entryDy=0;fontFamily=Helvetica;fontSize=12;fontColor=default;fontStyle=0;dashed=1;strokeColor=default;align=center;verticalAlign=middle;labelBackgroundColor=default;endArrow=box;endFill=0;" edge="1" parent="5jbSg2TQ_fppJZuNqXfu-109" source="5jbSg2TQ_fppJZuNqXfu-140" target="5jbSg2TQ_fppJZuNqXfu-114">
          <mxGeometry relative="1" as="geometry" />
        </mxCell>
        <mxCell id="5jbSg2TQ_fppJZuNqXfu-138" style="edgeStyle=elbowEdgeStyle;rounded=0;orthogonalLoop=1;jettySize=auto;html=1;exitX=1;exitY=0.5;exitDx=0;exitDy=0;entryX=0;entryY=0.5;entryDx=0;entryDy=0;fontFamily=Helvetica;fontSize=12;fontColor=default;fontStyle=0;dashed=1;strokeColor=default;align=center;verticalAlign=middle;labelBackgroundColor=default;endArrow=box;endFill=0;" edge="1" parent="1" source="5jbSg2TQ_fppJZuNqXfu-77" target="5jbSg2TQ_fppJZuNqXfu-130">
          <mxGeometry relative="1" as="geometry">
            <Array as="points">
              <mxPoint x="480" y="-1010" />
            </Array>
          </mxGeometry>
        </mxCell>
        <mxCell id="5jbSg2TQ_fppJZuNqXfu-139" style="edgeStyle=elbowEdgeStyle;rounded=0;orthogonalLoop=1;jettySize=auto;html=1;exitX=1;exitY=0.5;exitDx=0;exitDy=0;entryX=0;entryY=0.5;entryDx=0;entryDy=0;fontFamily=Helvetica;fontSize=12;fontColor=default;fontStyle=0;dashed=1;strokeColor=default;align=center;verticalAlign=middle;labelBackgroundColor=default;endArrow=box;endFill=0;" edge="1" parent="1" source="5jbSg2TQ_fppJZuNqXfu-78" target="5jbSg2TQ_fppJZuNqXfu-131">
          <mxGeometry relative="1" as="geometry">
            <Array as="points">
              <mxPoint x="530" y="-970" />
            </Array>
          </mxGeometry>
        </mxCell>
      </root>
    </mxGraphModel>
  </diagram>
</mxfile>
